<?xml version="1.0" standalone="no"?>
<!DOCTYPE svg PUBLIC "-//W3C//DTD SVG 20010904//EN"
 "http://www.w3.org/TR/2001/REC-SVG-20010904/DTD/svg10.dtd">
<svg version="1.0" xmlns="http://www.w3.org/2000/svg"
 width="663.000000pt" height="555.000000pt" viewBox="0 0 663.000000 555.000000"
 preserveAspectRatio="xMidYMid meet">

<g transform="translate(0.000000,555.000000) scale(0.100000,-0.100000)"
fill="#000000" stroke="none">
<path d="M3595 5173 c-70 -93 -281 -373 -468 -623 -187 -250 -441 -590 -565
-755 -124 -165 -227 -310 -230 -322 -3 -17 2 -25 23 -33 17 -6 187 -9 468 -8
243 1 391 4 329 5 -112 4 -113 4 -106 26 4 12 11 25 16 28 5 3 10 13 12 22 1
9 12 28 24 42 13 14 20 30 17 35 -12 19 6 32 19 15 11 -15 12 -13 12 11 -1 16
4 29 9 29 16 1 55 25 55 35 0 5 -8 10 -17 12 -10 2 37 12 105 22 67 10 122 20
122 23 0 8 -209 -17 -465 -56 -71 -11 -131 -19 -132 -17 -4 4 51 107 235 436
91 162 216 385 277 495 61 110 146 260 189 333 75 128 103 202 77 202 -7 0 -9
-5 -5 -12 4 -7 3 -8 -5 -4 -6 4 -14 0 -17 -8 -3 -9 -10 -16 -16 -16 -5 0 0 14
12 30 12 17 25 28 30 25 4 -3 13 1 19 9 7 8 8 16 3 18 -5 1 9 27 30 57 31 41
43 50 50 40 8 -11 9 -10 4 4 -3 9 -2 17 3 17 9 0 23 41 17 47 -2 2 -61 -72
-131 -164z m-65 -127 c0 -2 -8 -10 -17 -17 -16 -13 -17 -12 -4 4 13 16 21 21
21 13z"/>
<path d="M3663 5160 c-3 -11 -9 -20 -14 -20 -5 0 -6 -6 -3 -13 2 -7 -2 -32
-11 -56 -15 -44 -19 -69 -10 -59 8 8 53 168 48 168 -3 0 -7 -9 -10 -20z"/>
<path d="M3611 4984 c0 -11 3 -14 6 -6 3 7 2 16 -1 19 -3 4 -6 -2 -5 -13z"/>
<path d="M3591 4914 c0 -11 3 -14 6 -6 3 7 2 16 -1 19 -3 4 -6 -2 -5 -13z"/>
<path d="M3576 4875 c-3 -9 -6 -22 -5 -28 0 -7 5 -1 10 12 5 13 8 26 5 28 -2
2 -6 -3 -10 -12z"/>
<path d="M3561 4814 c0 -11 3 -14 6 -6 3 7 2 16 -1 19 -3 4 -6 -2 -5 -13z"/>
<path d="M3531 4714 c0 -11 3 -14 6 -6 3 7 2 16 -1 19 -3 4 -6 -2 -5 -13z"/>
<path d="M3481 4544 c0 -11 3 -14 6 -6 3 7 2 16 -1 19 -3 4 -6 -2 -5 -13z"/>
<path d="M2449 4483 c-16 -29 -40 -47 -103 -79 -266 -135 -664 -345 -691 -364
-5 -4 -39 -20 -75 -36 -36 -15 -109 -52 -162 -81 -53 -29 -100 -53 -105 -53
-4 0 0 5 10 11 18 10 18 12 -2 31 -12 10 -19 23 -16 29 4 5 2 9 -3 9 -5 0 -13
-15 -16 -32 l-7 -33 -13 30 c-7 17 -11 33 -9 38 3 4 1 7 -4 6 -23 -4 -43 2
-43 14 0 6 -4 18 -9 26 -8 13 -12 13 -27 0 -13 -10 -16 -10 -10 -1 4 7 18 17
30 22 17 7 17 9 4 9 -10 1 -18 6 -18 12 0 8 -6 7 -17 -2 -15 -12 -16 -12 -10
4 3 9 2 17 -3 17 -17 0 -62 48 -48 52 9 3 9 6 0 12 -7 4 -12 2 -12 -3 0 -6 -5
-11 -11 -11 -6 0 -8 7 -5 16 3 8 1 24 -4 34 -8 15 -19 18 -51 15 -23 -2 -49
-11 -58 -19 -9 -8 -29 -17 -46 -20 -16 -4 79 48 213 115 134 67 241 123 239
125 -8 8 -1104 -529 -1209 -592 -66 -40 -74 -58 -81 -179 -7 -106 8 -160 53
-195 40 -32 1750 -894 1757 -886 3 2 -22 19 -56 35 -67 35 -135 76 -110 68 9
-3 21 -1 27 5 8 8 13 7 18 -5 11 -30 34 -17 65 37 9 15 8 17 -3 10 -11 -6 -11
-5 1 9 7 9 10 17 6 17 -4 0 -1 7 6 17 11 13 11 17 1 21 -21 7 6 32 34 32 27 0
33 20 7 21 -17 0 -17 1 0 8 21 8 21 21 -2 38 -14 11 -14 12 4 13 17 1 16 3 -7
16 -16 8 -28 17 -28 19 0 7 39 -10 160 -68 167 -80 360 -167 370 -167 5 0 16
-10 24 -22 40 -57 6 13 -100 209 -64 117 -120 210 -125 207 -5 -3 -7 1 -4 8 3
7 -8 36 -24 64 -22 38 -41 56 -73 71 -24 11 -227 87 -453 168 -225 81 -420
153 -433 161 -29 19 -29 59 1 78 12 8 207 71 432 140 226 70 430 137 454 149
38 19 54 37 107 127 42 69 61 112 58 125 -4 13 -2 16 3 7 7 -8 38 37 100 145
50 87 101 175 113 196 12 20 20 37 17 37 -3 0 -16 -17 -28 -37z m-76 -120 c-9
-24 -43 -80 -43 -71 0 9 41 88 46 88 2 0 0 -8 -3 -17z m-83 -143 c-6 -11 -13
-20 -16 -20 -2 0 0 9 6 20 6 11 13 20 16 20 2 0 0 -9 -6 -20z m-1244 -88 c-11
-9 -16 -11 -12 -4 4 6 2 12 -5 12 -8 0 -8 4 1 15 9 11 16 13 24 5 7 -7 5 -15
-8 -28z m35 -49 c13 -16 12 -17 -3 -4 -17 13 -22 21 -14 21 2 0 10 -8 17 -17z
m36 -23 c-1 -12 -5 -16 -10 -11 -5 5 -6 14 -3 20 11 16 15 13 13 -9z m83 -96
c0 -8 5 -14 11 -14 5 0 7 -5 3 -11 -4 -8 -10 -5 -17 7 -15 25 -18 46 -6 38 5
-3 9 -12 9 -20z m100 -103 c0 -5 -7 -11 -14 -14 -10 -4 -13 -1 -9 9 6 15 23
19 23 5z m-330 -301 c85 -18 157 -35 160 -37 5 -5 -21 -23 -33 -23 -5 0 -5 5
-1 11 4 7 1 10 -6 7 -27 -9 -22 -28 7 -28 22 0 25 -2 13 -10 -13 -9 -13 -11 0
-20 13 -9 13 -10 0 -10 -12 0 -13 -2 -1 -9 7 -5 10 -14 7 -20 -4 -6 -11 -9
-16 -6 -5 3 -20 3 -33 0 -18 -5 -23 -12 -20 -26 4 -13 0 -19 -11 -19 -9 0 -15
-3 -15 -7 1 -5 0 -10 -1 -13 -6 -16 -5 -50 2 -50 4 0 8 10 8 23 1 20 2 20 11
4 5 -9 8 -21 4 -26 -3 -5 1 -12 7 -14 8 -3 6 -6 -4 -6 -9 -1 -57 16 -105 38
-121 53 -326 135 -393 156 -30 10 -58 22 -61 27 -3 5 -20 10 -38 10 -17 1 -29
3 -26 6 14 14 315 81 350 78 22 -2 110 -19 195 -36z m1294 -700 c-6 -6 -10 -3
-10 10 0 13 4 16 10 10 7 -7 7 -13 0 -20z m59 -84 c4 -10 1 -13 -9 -9 -15 6
-19 23 -5 23 5 0 11 -7 14 -14z m47 -77 c0 -4 -9 -9 -20 -12 -17 -4 -20 0 -20
31 l0 37 20 -25 c11 -14 20 -28 20 -31z"/>
<path d="M1570 4480 c-30 -16 -50 -29 -45 -29 6 0 35 13 65 29 30 16 51 29 45
29 -5 0 -35 -13 -65 -29z"/>
<path d="M1405 4400 c-39 -26 -25 -26 17 0 18 11 29 20 23 20 -5 0 -23 -9 -40
-20z"/>
<path d="M3533 3943 c9 -2 23 -2 30 0 6 3 -1 5 -18 5 -16 0 -22 -2 -12 -5z"/>
<path d="M3600 3946 c0 -2 7 -7 16 -10 8 -3 12 -2 9 4 -6 10 -25 14 -25 6z"/>
<path d="M3690 3939 c-42 -4 -30 -6 54 -7 115 -2 141 -10 43 -13 -32 -1 -60
-6 -63 -11 -3 -4 0 -8 6 -8 6 0 9 -4 5 -10 -3 -5 -12 -7 -20 -4 -14 6 -15 -12
-2 -33 5 -8 4 -13 -2 -13 -6 0 -11 -7 -11 -15 0 -9 -9 -15 -24 -15 -14 0 -27
-4 -30 -9 -3 -4 6 -7 21 -5 46 5 9 -14 -47 -24 -106 -19 3 -12 134 8 71 11
133 20 138 20 5 0 -10 -26 -32 -57 -42 -58 -68 -97 -195 -293 -184 -283 -325
-537 -536 -966 -79 -160 -151 -309 -160 -330 -27 -66 -40 -91 -35 -69 14 58
14 75 1 35 -8 -25 -13 -50 -11 -57 3 -6 1 -13 -5 -15 -5 -2 -12 -28 -16 -58
-3 -30 -9 -57 -13 -60 -6 -5 -31 -92 -27 -96 1 -1 38 55 81 124 44 70 138 216
209 325 71 109 127 201 124 203 -2 3 -19 -16 -36 -42 -17 -26 -31 -40 -31 -32
0 17 57 83 71 83 5 0 28 29 52 65 32 47 43 74 41 96 -1 20 3 31 12 31 10 0 10
-5 3 -20 -6 -10 -9 -21 -6 -23 2 -2 74 101 159 228 172 258 305 453 530 781
110 160 151 227 152 250 l1 32 -240 5 c-132 3 -265 2 -295 -1z m-140 -1029
c-6 -11 -13 -20 -16 -20 -2 0 0 9 6 20 6 11 13 20 16 20 2 0 0 -9 -6 -20z
m-40 -64 c0 -3 -4 -8 -10 -11 -5 -3 -10 -1 -10 4 0 6 5 11 10 11 6 0 10 -2 10
-4z m-186 -276 c-29 -43 -37 -50 -27 -23 7 17 43 63 50 63 2 0 -9 -18 -23 -40z
m-143 -217 c-5 -10 -17 -27 -26 -38 -16 -19 -16 -19 -4 5 13 27 29 50 36 50 2
0 -1 -8 -6 -17z"/>
<path d="M3675 3880 c3 -5 8 -10 11 -10 2 0 4 5 4 10 0 6 -5 10 -11 10 -5 0
-7 -4 -4 -10z"/>
<path d="M3528 3753 c6 -2 18 -2 25 0 6 3 1 5 -13 5 -14 0 -19 -2 -12 -5z"/>
<path d="M3271 3424 c0 -11 3 -14 6 -6 3 7 2 16 -1 19 -3 4 -6 -2 -5 -13z"/>
<path d="M2961 2224 c0 -11 3 -14 6 -6 3 7 2 16 -1 19 -3 4 -6 -2 -5 -13z"/>
<path d="M2951 2184 c0 -11 3 -14 6 -6 3 7 2 16 -1 19 -3 4 -6 -2 -5 -13z"/>
<path d="M3318 1413 c12 -2 30 -2 40 0 9 3 -1 5 -23 4 -22 0 -30 -2 -17 -4z"/>
<path d="M3498 1413 c7 -3 16 -2 19 1 4 3 -2 6 -13 5 -11 0 -14 -3 -6 -6z"/>
<path d="M3181 1379 c-103 -51 -146 -129 -139 -249 3 -58 9 -76 34 -112 17
-24 37 -42 43 -40 7 1 10 -2 7 -7 -16 -25 111 -91 297 -156 160 -55 203 -106
165 -190 -38 -84 -250 -98 -441 -29 -40 14 -78 27 -86 27 -10 1 -20 -20 -31
-67 l-17 -68 31 -19 c76 -47 265 -83 396 -76 215 11 341 91 370 234 26 124
-22 239 -125 297 l-30 18 30 -24 c51 -40 87 -82 103 -118 20 -48 18 -179 -4
-222 -22 -44 -72 -96 -109 -114 l-30 -15 23 20 c12 10 22 24 22 31 0 6 5 8 13
4 7 -5 6 0 -3 11 -8 10 -10 16 -3 12 6 -4 14 -3 17 2 4 5 -2 12 -11 14 -14 4
-13 5 5 6 12 0 22 6 22 12 0 5 -4 8 -9 4 -5 -3 -13 0 -17 6 -4 8 -3 9 4 5 7
-4 12 -2 12 4 0 6 5 8 12 4 7 -4 8 -3 4 4 -4 6 -13 9 -20 6 -8 -3 -16 -2 -19
3 -3 4 6 9 19 9 40 3 54 12 53 36 0 22 -1 22 -9 3 -8 -19 -9 -19 -9 3 -1 12 4
22 9 22 6 0 10 4 10 10 0 5 -3 9 -7 9 -25 -4 -35 3 -29 19 5 14 3 14 -9 -2
-20 -27 -32 -12 -39 49 -8 73 -8 74 -23 68 -8 -3 -13 2 -14 13 0 11 -3 14 -6
7 -2 -7 -9 -13 -14 -13 -6 0 -7 5 -3 12 4 7 3 8 -5 4 -9 -6 -9 -11 0 -22 10
-12 10 -15 -2 -12 -22 5 -29 21 -16 38 9 12 9 13 -2 3 -8 -7 -26 -9 -41 -6
-22 4 -28 1 -33 -19 -5 -17 -1 -28 16 -41 14 -11 2 -8 -33 9 -30 14 -56 30
-58 35 -2 4 -9 6 -17 3 -8 -3 -21 -2 -29 3 -10 6 2 9 37 8 28 0 58 -4 66 -9
10 -6 12 -6 7 2 -4 7 -2 12 4 12 7 0 9 7 6 16 -5 14 -4 15 9 4 8 -7 15 -8 15
-3 0 12 -56 56 -75 59 -7 1 -16 -8 -19 -20 -6 -20 -7 -20 -17 -3 -6 10 -8 25
-5 34 5 12 3 13 -6 5 -16 -13 -88 -13 -88 0 0 5 5 6 12 2 6 -4 8 -3 5 4 -4 5
-16 8 -26 5 -10 -3 -22 0 -26 7 -5 8 -10 8 -21 -1 -16 -13 -19 2 -3 18 7 7 3
9 -17 5 -19 -3 -25 -1 -20 7 4 7 0 10 -11 9 -33 -2 -53 2 -53 12 0 6 7 10 17
10 9 0 14 2 11 5 -3 3 -19 2 -36 -1 -32 -6 -43 -28 -19 -37 9 -3 9 -8 -2 -18
-8 -8 -11 -9 -7 -2 6 11 -10 27 -26 28 -11 0 -45 49 -56 84 -7 19 -12 56 -12
83 0 107 63 185 183 228 28 11 43 19 31 20 -11 0 -49 -14 -83 -31z m127 -447
c-10 -2 -18 -8 -18 -14 0 -6 -13 -8 -32 -5 l-33 6 35 -19 c41 -23 34 -26 -14
-6 -51 21 -54 36 -7 32 26 -3 44 1 52 10 6 8 16 11 23 7 7 -5 5 -9 -6 -11z
m302 -183 c0 -11 -5 -17 -10 -14 -6 4 -7 11 -4 17 4 6 2 8 -4 4 -6 -3 -13 -2
-17 4 -3 5 3 10 14 10 15 0 21 -6 21 -21z m-80 -208 c0 -4 -37 -8 -82 -8 -82
0 -82 0 -23 7 93 10 105 11 105 1z m107 -97 c-3 -3 -12 -4 -19 -1 -8 3 -5 6 6
6 11 1 17 -2 13 -5z"/>
<path d="M420 904 l0 -496 248 5 c212 3 256 7 312 24 92 29 139 55 202 112 98
89 142 204 142 366 0 160 -39 260 -135 350 -113 106 -232 135 -550 135 l-219
0 0 -496z m479 321 c71 -22 150 -99 175 -170 51 -146 23 -317 -66 -402 -60
-58 -119 -77 -250 -81 l-118 -4 0 342 0 343 103 -6 c56 -3 126 -13 156 -22z"/>
<path d="M3712 1270 c0 -14 2 -19 5 -12 2 6 2 18 0 25 -3 6 -5 1 -5 -13z"/>
<path d="M3413 1263 c20 -2 54 -2 75 0 20 2 3 4 -38 4 -41 0 -58 -2 -37 -4z"/>
<path d="M3315 1250 c-13 -5 -14 -9 -5 -9 8 0 24 4 35 9 13 5 14 9 5 9 -8 0
-24 -4 -35 -9z"/>
<path d="M3548 1253 c7 -3 16 -2 19 1 4 3 -2 6 -13 5 -11 0 -14 -3 -6 -6z"/>
<path d="M3608 1243 c7 -3 16 -2 19 1 4 3 -2 6 -13 5 -11 0 -14 -3 -6 -6z"/>
<path d="M3251 1154 c0 -11 3 -14 6 -6 3 7 2 16 -1 19 -3 4 -6 -2 -5 -13z"/>
<path d="M1623 1111 c-73 -25 -118 -58 -158 -116 -82 -121 -87 -300 -11 -429
69 -118 241 -187 431 -172 80 6 209 36 226 53 5 5 4 37 -3 76 -9 56 -14 67
-27 61 -47 -21 -164 -44 -222 -44 -76 0 -120 12 -168 48 -30 23 -70 90 -71
120 0 9 58 12 256 12 l257 0 -6 93 c-3 50 -11 108 -18 127 -31 87 -90 144
-182 174 -68 23 -235 21 -304 -3z m237 -124 c33 -17 70 -74 70 -108 l0 -29
-139 0 c-77 0 -147 -3 -157 -7 -15 -6 -16 -2 -11 31 13 81 69 126 157 126 30
0 66 -6 80 -13z"/>
<path d="M3260 1123 c0 -21 58 -61 130 -88 39 -15 73 -25 76 -22 3 3 -19 13
-48 22 -77 26 -110 43 -135 73 -13 15 -23 22 -23 15z"/>
<path d="M2153 1108 c2 -7 43 -112 90 -233 47 -121 108 -274 136 -340 l49
-120 130 -3 130 -3 31 75 c109 262 251 621 248 629 -1 5 -15 -23 -31 -62 -26
-67 -46 -91 -46 -55 0 8 4 13 8 10 5 -3 16 15 25 40 l16 44 -26 0 c-19 0 -24
-4 -19 -16 5 -13 3 -14 -6 -7 -7 6 -25 10 -40 9 -14 -1 -24 2 -22 6 3 4 1 8
-5 8 -5 0 -12 -4 -15 -9 -3 -5 -16 -7 -29 -4 -16 3 -18 2 -8 -5 15 -11 -2 -27
-19 -17 -6 3 -10 -4 -10 -17 0 -13 -7 -32 -15 -42 -8 -11 -15 -29 -15 -40 0
-10 -3 -16 -6 -13 -4 4 4 38 16 77 12 39 21 73 19 75 -3 2 -42 -109 -88 -246
-46 -138 -84 -249 -86 -247 -2 2 -102 292 -162 471 l-16 47 -120 0 c-91 0
-118 -3 -114 -12z m150 -5 c-13 -2 -33 -2 -45 0 -13 2 -3 4 22 4 25 0 35 -2
23 -4z m86 -29 c7 -19 11 -37 9 -39 -2 -3 -10 11 -16 30 -7 18 -21 36 -30 38
-13 4 -13 5 3 6 15 1 25 -9 34 -35z m502 -127 c-10 -9 -11 -8 -5 6 3 10 9 15
12 12 3 -3 0 -11 -7 -18z m-14 -39 c-3 -8 -6 -5 -6 6 -1 11 2 17 5 13 3 -3 4
-12 1 -19z"/>
<path d="M2788 1113 c29 -2 74 -2 100 0 26 2 2 3 -53 3 -55 0 -76 -1 -47 -3z"/>
<path d="M3989 1033 l-24 -28 28 24 c15 14 27 26 27 28 0 8 -8 1 -31 -24z"/>
<path d="M3545 980 c38 -17 79 -33 90 -36 19 -5 19 -5 1 7 -25 15 -137 59
-150 59 -6 0 20 -14 59 -30z"/>
<path d="M3930 968 c-11 -18 -20 -37 -20 -42 0 -12 1 -10 28 37 26 45 19 50
-8 5z"/>
<path d="M4154 948 l-19 -23 23 19 c21 18 27 26 19 26 -2 0 -12 -10 -23 -22z"/>
<path d="M3896 895 c-3 -9 -6 -24 -5 -33 0 -9 5 -4 10 12 9 32 6 48 -5 21z"/>
<path d="M3560 871 c0 -6 4 -13 10 -16 6 -3 7 1 4 9 -7 18 -14 21 -14 7z"/>
<path d="M3475 830 c3 -5 11 -10 16 -10 6 0 7 5 4 10 -3 6 -11 10 -16 10 -6 0
-7 -4 -4 -10z"/>
<path d="M3883 770 c0 -41 2 -58 4 -37 2 20 2 54 0 75 -2 20 -4 3 -4 -38z"/>
<path d="M4481 814 c0 -11 3 -14 6 -6 3 7 2 16 -1 19 -3 4 -6 -2 -5 -13z"/>
<path d="M4083 775 c0 -22 2 -30 4 -17 2 12 2 30 0 40 -3 9 -5 -1 -4 -23z"/>
<path d="M4771 784 c0 -11 3 -14 6 -6 3 7 2 16 -1 19 -3 4 -6 -2 -5 -13z"/>
<path d="M4772 740 c0 -14 2 -19 5 -12 2 6 2 18 0 25 -3 6 -5 1 -5 -13z"/>
<path d="M4481 694 c0 -11 3 -14 6 -6 3 7 2 16 -1 19 -3 4 -6 -2 -5 -13z"/>
<path d="M3891 674 c0 -11 3 -14 6 -6 3 7 2 16 -1 19 -3 4 -6 -2 -5 -13z"/>
<path d="M6151 644 c0 -11 3 -14 6 -6 3 7 2 16 -1 19 -3 4 -6 -2 -5 -13z"/>
<path d="M3901 642 c-1 -19 34 -85 66 -122 28 -33 108 -90 127 -90 5 0 -12 14
-40 31 -61 38 -99 80 -129 144 -13 28 -24 44 -24 37z"/>
<path d="M4806 597 c3 -10 9 -15 12 -12 3 3 0 11 -7 18 -10 9 -11 8 -5 -6z"/>
<path d="M6152 570 c0 -14 2 -19 5 -12 2 6 2 18 0 25 -3 6 -5 1 -5 -13z"/>
<path d="M4160 576 c0 -2 8 -10 18 -17 15 -13 16 -12 3 4 -13 16 -21 21 -21
13z"/>
<path d="M4403 569 c-6 -6 -28 -17 -49 -24 -23 -8 -31 -14 -19 -15 19 0 85 34
85 45 0 8 -5 6 -17 -6z"/>
<path d="M5233 533 c9 -2 25 -2 35 0 9 3 1 5 -18 5 -19 0 -27 -2 -17 -5z"/>
<path d="M4288 523 c7 -3 16 -2 19 1 4 3 -2 6 -13 5 -11 0 -14 -3 -6 -6z"/>
<path d="M4490 440 c-9 -6 -10 -10 -3 -10 6 0 15 5 18 10 8 12 4 12 -15 0z"/>
<path d="M4950 446 c0 -2 7 -7 16 -10 8 -3 12 -2 9 4 -6 10 -25 14 -25 6z"/>
<path d="M4138 413 c7 -3 16 -2 19 1 4 3 -2 6 -13 5 -11 0 -14 -3 -6 -6z"/>
<path d="M4178 403 c7 -3 16 -2 19 1 4 3 -2 6 -13 5 -11 0 -14 -3 -6 -6z"/>
<path d="M4388 403 c7 -3 16 -2 19 1 4 3 -2 6 -13 5 -11 0 -14 -3 -6 -6z"/>
<path d="M5068 403 c7 -3 16 -2 19 1 4 3 -2 6 -13 5 -11 0 -14 -3 -6 -6z"/>
<path d="M4258 393 c17 -2 47 -2 65 0 17 2 3 4 -33 4 -36 0 -50 -2 -32 -4z"/>
<path d="M5138 393 c6 -2 18 -2 25 0 6 3 1 5 -13 5 -14 0 -19 -2 -12 -5z"/>
<path d="M5193 393 c9 -2 25 -2 35 0 9 3 1 5 -18 5 -19 0 -27 -2 -17 -5z"/>
<path d="M5858 393 c6 -2 18 -2 25 0 6 3 1 5 -13 5 -14 0 -19 -2 -12 -5z"/>
</g>
</svg>
